# xmcd
#
# Track frame offsets:
#	183
#	20318
#	35933
#	49058
#	58183
#	69395
#	79333
#	92278
#	107200
#	123965
#	134283
#	151393
#	161575
#	174215
#	182690
#	194488
#	208945
#	225473
#	240875
#	256780
#	273158
#	282715
#	299598
#
# Disc length: 4230 seconds
#
# Revision: 0
# Processed by: cddbd v1.5.2PL0 Copyright (c) Steve Scherf et al.
# Submitted via: EasyCDDAExtractor 16.0.0.1
#
DISCID=48108417
DTITLE=Raymond FAU - Chanter Marie
DYEAR=1900
DGENRE=
TTITLE0=Je veux te chanter Marie
TTITLE1=Celle que Dieu préfère
TTITLE2=Bienheureuse mère de Dieu
TTITLE3=Réjouis-toi, pleine de grace
TTITLE4=Tu es belle, O Marie
TTITLE5=Marie, tendresse des pauvres
TTITLE6=Bénie sois-tu Marie
TTITLE7=Chercher avec toi, Marie
TTITLE8=Marie, comblée de grace
TTITLE9=Je te salue Marie
TTITLE10=Reçois nos louanges
TTITLE11=Sainte Vierge, ma mère
TTITLE12=Tu es bénie, Marie
TTITLE13=Marie je viens à vos côtés
TTITLE14=Marie, je te dis merci
TTITLE15=Entre la fleur et le fruit, Marie
TTITLE16=Marie à Canna
TTITLE17=Saurais-je dire oui ?
TTITLE18=La prière
TTITLE19=La première en chemin, Marie
TTITLE20=Je te salue, Marie
TTITLE21=J'exulte de joie !
TTITLE22=Magnificat
EXTD=
EXTT0=
EXTT1=
EXTT2=
EXTT3=
EXTT4=
EXTT5=
EXTT6=
EXTT7=
EXTT8=
EXTT9=
EXTT10=
EXTT11=
EXTT12=
EXTT13=
EXTT14=
EXTT15=
EXTT16=
EXTT17=
EXTT18=
EXTT19=
EXTT20=
EXTT21=
EXTT22=
PLAYORDER=
